<svg width="227" height="247" viewBox="0 0 227 247" fill="none" xmlns="http://www.w3.org/2000/svg">
<path d="M32.9808 28.3098C32.9808 37.5495 32.9808 46.7891 32.9808 56.0287C32.9808 67.4893 34.5452 78.4869 35.8004 89.7837C36.1469 92.9021 36.9313 96.0306 37.2697 99.0763C37.3569 99.8611 37.9845 104.527 37.9845 101.936C37.9845 92.5357 38.5414 82.6337 42.8294 74.0578C47.408 64.9006 50.8085 83.892 51.2085 85.8919C51.8128 88.9132 52.1634 92.3979 53.7104 95.1051C54.6464 96.743 58.0463 88.2892 58.3567 87.5995C60.0433 83.8516 59.3245 78.5346 61.2159 75.13C62.6386 72.5692 64.573 78.7878 65.5048 80.1337C66.8803 82.1206 67.0444 84.0652 69.7937 84.0652C72.7477 84.0652 74.1346 82.6133 75.5122 80.1337C79.4014 73.1332 73.8871 65.4801 66.4182 65.4801C62.83 65.4801 59.5871 66.9257 59.4289 71.0397C59.3048 74.2659 58.7952 76.3138 62.1293 77.6319C66.6774 79.43 71.931 80.3722 74.3605 75.2095C76.2655 71.1615 75.8696 65.5751 75.8696 61.1912C75.8696 57.7928 74.9551 55.4491 78.4111 58.4114C81.7674 61.2882 84.7644 65.3499 89.0539 66.9097C95.638 69.3039 94.4547 58.2261 94.4547 54.0431C94.4547 51.8702 94.5918 48.4823 91.5954 48.3246C88.1486 48.1432 86.8458 49.3043 88.895 52.7723C91.4366 57.0734 95.5769 62.9022 100.173 65.3212C104.055 67.3645 106.982 64.2233 109.466 61.3501C115.89 53.9183 118.043 45.1381 118.043 35.458" stroke="black" stroke-width="3" stroke-linecap="round"/>
<path d="M11.4324 73.7785C11.4324 83.9554 11.4324 94.1323 11.4324 104.309C11.4324 111.131 11.4324 117.952 11.4324 124.773C11.4324 126.019 10.6825 130.56 11.7082 131.586C12.9366 132.814 18.6079 131.809 19.9821 131.255C25.575 128.999 28.5026 124.904 30.5727 119.285C31.3406 117.201 32.6558 110.779 32.7791 112.997C33.0298 117.51 33.86 122.109 34.3787 126.621C34.8007 130.293 35.0812 132.779 38.7638 134.068C41.3874 134.986 46.1835 135.651 47.8927 132.854C50.226 129.036 49.9935 123.722 49.6027 119.423C49.4624 117.88 48.2639 112.997 45.9346 112.997C38.3774 112.997 30.9337 110.779 23.3468 110.129C15.9061 109.491 8.38868 109.313 2.00012 105.054" stroke="black" stroke-width="3" stroke-linecap="round"/>
<path d="M71.9973 112.004C70.0449 112.004 71.0045 119.641 71.0045 121.409C71.0045 122.739 70.5181 124.501 72.218 124.801C74.9495 125.283 78.049 124.911 80.8228 124.911C82.1845 124.911 84.1779 124.438 85.1253 125.656C86.4698 127.385 86.8507 129.984 86.6146 132.11C85.8619 138.884 76.8394 142.208 71.17 143.665C68.4694 144.36 65.8227 144.272 63.0615 144.272" stroke="black" stroke-width="3" stroke-linecap="round"/>
<path d="M83.4153 82.7144C83.4153 88.5153 83.4153 94.3162 83.4153 100.117C83.4153 109.293 85.8762 117.347 88.159 126.152C89.4996 131.323 94.2176 134.605 98.9151 130.868C101.649 128.694 106.748 123.282 106.748 119.45" stroke="black" stroke-width="3" stroke-linecap="round"/>
<path d="M79.444 116.472C86.4406 116.472 90.1985 113.496 93.8406 108.033" stroke="black" stroke-width="3" stroke-linecap="round"/>
<path d="M120.648 102.572C116.214 102.572 114.121 107.025 111.988 110.515C109.492 114.598 110.223 119.839 110.223 124.415C110.223 128.424 110.446 131.587 114.194 133.461C118.553 135.641 121.511 124.382 122.523 121.657C124.539 116.231 126.109 111.116 126.109 105.302C126.109 102.333 126.076 105.315 126.109 106.543C126.203 110.128 128.134 113.852 129.335 117.189C130.621 120.76 133.451 122.259 136.92 119.947C140.54 117.533 141.498 111.598 141.498 107.536" stroke="black" stroke-width="3" stroke-linecap="round"/>
<path d="M135.541 96.6145C135.541 100.858 140.18 103.599 143.484 105.164C145.213 105.983 148.434 106.937 148.917 104.282C149.846 99.1709 150.962 93.6033 148.945 88.5612C148.528 87.5194 147.97 84.946 146.959 84.314C145.564 83.4422 147.684 86.4901 147.979 86.9892C153.751 96.7282 156.737 108.793 157.77 119.947C158.618 129.104 158.86 138.704 149.717 143.748C146.703 145.411 142.971 146.754 139.512 146.754" stroke="black" stroke-width="3" stroke-linecap="round"/>
<path d="M182.206 103.068C182.206 100.038 180.121 97.509 177.986 95.3734C176.692 94.0797 173.041 91.1616 171.174 93.0292C170.26 93.9428 170.005 96.7903 169.574 98.0211C168.797 100.242 168.305 102.729 168.305 105.081C168.305 109.1 168.217 113.065 168.774 116.968C169.095 119.212 171.883 121.436 174.263 121.436C177.614 121.436 179.72 113.451 180.33 111.011C180.868 108.862 181.372 106.722 181.682 104.557C182.116 101.519 181.715 104.215 182.454 106.267C183.518 109.224 184.258 112.221 185.184 115.231C185.648 116.739 185.795 118.517 186.949 119.671C191.115 123.837 195.321 106.061 195.858 104.557C197.345 100.393 197.94 95.5894 199.691 91.6502C200.883 88.9684 199.535 85.1669 196.106 87.0719C193.38 88.5865 192.018 95.4693 192.658 98.352C193.017 99.9639 195.706 101.382 196.85 102.351C198.76 103.967 200.243 105.398 201.842 107.288C206.073 112.288 206.994 118.215 202.173 123.036C197.677 127.532 191.291 128.386 185.184 128.386" stroke="black" stroke-width="3" stroke-linecap="round"/>
<path d="M84.9525 188.749C81.6989 188.749 78.4712 188.252 75.2996 188.252C73.9849 188.252 72.0329 187.076 70.8041 188.032C69.5648 188.996 68.989 190.189 68.2944 191.479C65.6221 196.442 65.5916 200.809 65.5916 206.372C65.5916 210.797 66.1433 212.097 70.087 214.315C74.6862 216.902 76.7787 212.777 78.885 209.213C81.0992 205.466 83.4632 199.588 83.4632 195.202C83.4632 193.153 84.0219 194.682 84.4561 196.03C85.5978 199.575 87.0156 203.059 88.4275 206.51C89.2962 208.633 91.001 210.41 91.7923 212.467C92.2235 213.588 93.3919 213.779 93.3919 215.06" stroke="black" stroke-width="3" stroke-linecap="round"/>
<path d="M98.5587 138.741C98.5587 146.345 100.344 153.974 100.544 161.577C100.724 168.416 103.309 175.816 105.757 182.179C107.585 186.931 108.411 192.634 109.508 197.569C110.001 199.786 110.793 201.773 111.852 203.774C112.627 205.239 114.519 205.872 115.437 207.249" stroke="black" stroke-width="3" stroke-linecap="round"/>
<path d="M103.027 175.974C103.027 171.123 106.068 168.407 108.874 164.666C111.413 161.281 115.289 156.917 119.133 154.903C121.87 153.47 124.479 152.184 127.324 150.904C128.659 150.303 133.082 148.784 129.338 150.656C121.164 154.743 111.888 157.681 105.261 164.308C103.189 166.379 99.0552 170.05 99.0552 173.244C99.0552 175.51 102.377 174.176 104.047 174.761C108.31 176.253 111.966 178.135 115.548 180.938C122.852 186.654 129.892 193.719 139.873 193.349C144.176 193.19 144.231 186.635 144.231 183.834C144.231 181.711 144.231 179.587 144.231 177.463C144.231 175.623 144.213 176.81 144.727 177.96C146.144 181.126 146.771 184.617 148.45 187.64C149.562 189.641 151.79 189.874 153.939 189.874C158.213 189.874 160.266 183.112 161.606 179.835C162.602 177.4 164.184 173.02 166.57 171.616C167.816 170.884 168.332 169.407 169.769 168.996C171.368 168.54 172.389 168.031 174.265 168.031C176.681 168.031 172.868 166.857 171.921 167.149C167.169 168.611 165.503 179.304 167.453 183.421C167.988 184.551 171.186 186.503 172.527 185.792C173.62 185.214 173.9 182.403 174.017 181.407C174.484 177.432 175.186 173.525 175.506 169.52C176.082 162.326 176.643 154.522 175.892 147.291C175.755 145.966 175.739 144.538 175.037 143.485C173.917 141.805 175.755 147.464 176.278 149.415C178.485 157.639 180.574 166.201 183.449 174.209C184.919 178.303 186.314 183.886 191.226 184.8C197.261 185.922 201.443 179.864 205.789 176.967" stroke="black" stroke-width="3" stroke-linecap="round"/>
<path d="M144.231 167.038C144.231 166.299 144.5 165.734 144.727 165.052" stroke="black" stroke-width="3" stroke-linecap="round"/>
<path d="M141.486 217.303C139.423 217.303 136.652 216.776 134.805 217.877C133.063 218.915 132.385 220.664 131.991 222.548C131.431 225.225 131.303 227.876 131.303 230.606C131.303 233.728 131.317 236.745 131.769 239.842C131.973 241.234 132.367 242.591 132.542 243.985C132.57 244.21 132.844 244.915 132.61 245.102C132.152 245.468 131.056 245.239 130.516 245.239C128.002 245.239 125.523 244.921 123.13 244.138C122.304 243.868 121.331 243.529 120.645 242.969C119.261 241.835 123.463 238.986 124.002 238.573C126.801 236.423 129.756 234.521 132.74 232.647C133.572 232.125 134.385 231.576 135.225 231.065C135.396 230.961 135.978 230.464 136.181 230.522C136.317 230.561 136.37 231.455 136.395 231.554C136.591 232.34 136.902 233.084 137.358 233.756C137.911 234.57 138.761 235.437 139.728 235.713C141.494 236.218 143.821 235.382 145.416 234.78C147.869 233.856 149.836 231.996 150.263 229.306C150.587 227.27 150.261 225.246 149.025 223.542C147.965 222.081 146.358 221.859 144.713 222.624C142.972 223.434 140.513 224.717 139.56 226.524C139.123 227.352 139.147 228.357 139.147 229.276" stroke="black" stroke-width="3" stroke-linecap="round"/>
<path d="M151.395 219.368C151.395 222.775 151.435 226.234 152.641 229.475C152.972 230.365 153.634 231.491 153.734 232.441C153.819 233.249 154.009 232.462 154.009 232.082C154.009 230.252 154.009 228.422 154.009 226.592C154.009 224.633 154.629 222.959 155.416 221.187C156.162 219.509 157.967 217.716 159.927 217.716" stroke="black" stroke-width="3" stroke-linecap="round"/>
<path d="M163.092 224.459C164.803 224.459 166.846 224.131 168.015 222.67C169.086 221.332 169.49 219.624 169.728 217.961C169.872 216.949 170.582 214.129 169.284 213.481C168.472 213.074 167.561 213.417 166.807 213.794C165.57 214.413 164.802 215.523 164.407 216.822C164.029 218.062 164.23 219.447 164.124 220.721C163.971 222.551 164.055 224.405 164.055 226.241C164.055 228.367 163.935 231.339 166.196 232.495C168.881 233.867 170.838 231.713 172.587 229.964" stroke="black" stroke-width="3" stroke-linecap="round"/>
<path d="M172.037 210.285C173.014 210.383 174.241 211.873 174.957 212.487C176.072 213.442 177.153 214.378 178.199 215.407C179.443 216.632 180.728 217.865 181.853 219.199C182.735 220.244 183.396 221.629 184.361 222.594C184.891 223.124 184.709 222.029 184.69 221.699C184.555 219.405 184.251 217.111 183.941 214.834C183.661 212.786 183.187 210.772 183.054 208.702C183.03 208.336 183.269 206.887 182.908 206.707" stroke="black" stroke-width="3" stroke-linecap="round"/>
<path d="M188.688 212.212C190.401 210.498 192.166 208.778 193.642 206.845C194.753 205.39 195.762 204.034 196.089 202.196C196.149 201.857 196.272 200.893 196.043 200.598C195.845 200.344 194.868 200.175 194.575 200.132C193.588 199.986 191.835 199.814 191.035 200.514C189.956 201.459 189.514 202.921 189.514 204.299C189.514 207.145 189.664 209.812 190.133 212.624C190.423 214.365 190.838 217.675 192.679 218.595C193.591 219.051 194.73 218.309 195.37 217.747C197.128 216.204 198.5 214.345 199.697 212.349" stroke="black" stroke-width="3" stroke-linecap="round"/>
<path d="M199.835 196.386C199.877 197.866 200.437 199.362 200.799 200.79C201.202 202.383 201.763 203.942 202.282 205.499C202.699 206.752 203.424 207.935 203.795 209.184C203.884 209.482 203.971 209.742 204.132 210.01C204.241 210.192 204.11 209.115 204.094 209.016C203.668 206.465 203.276 203.971 203.276 201.371C203.276 199.27 203.292 197.694 204.583 195.973C205.796 194.355 207.424 192.726 208.979 191.439C209.496 191.012 210.395 190.193 211.12 190.193" stroke="black" stroke-width="3" stroke-linecap="round"/>
<path d="M133.487 44.8762C133.487 40.0539 133.788 35.2879 136.48 31.0811C139.288 26.6935 143.706 24.4715 148.802 23.6062C150.767 23.2725 152.768 23.2719 154.757 23.2719C157.567 23.2719 159.263 24.4386 161.427 26.2042C164.817 28.9695 166.604 32.8671 168.507 36.6721C169.27 38.1974 170.475 39.8591 170.68 41.5946C170.769 42.3526 170.612 41.9887 169.859 42.4758C169.371 42.7916 168.969 43.5639 168.553 43.9951C167.519 45.0656 166.581 46.0781 165.468 47.0792C161.214 50.9086 156.561 51.4995 151.05 52.1992C146.351 52.7959 139.677 51.3392 136.222 47.8844C134.963 46.6254 134.855 44.6888 134.855 42.9619" stroke="black" stroke-width="3" stroke-linecap="round"/>
<path d="M189.549 38.0394C189.549 32.0549 191.024 25.3318 194.897 20.598C198.542 16.1431 202.839 15.6147 208.206 15.6147C211.176 15.6147 214.707 17.4092 217.109 19.1091C219.052 20.484 222.134 22.7629 223.399 24.9128C224.232 26.3288 223.015 28.6886 222.305 30.1087C219.821 35.0768 214.119 37.7917 208.905 39.4676C205.412 40.5902 200.662 42.2876 196.994 41.1084C194.656 40.3572 192.816 38.7003 191.463 36.6721" stroke="black" stroke-width="3" stroke-linecap="round"/>
<path d="M175.329 34.7578C175.329 41.7623 175.602 48.8582 175.602 55.8151C175.602 58.3852 182.067 57.456 184.08 57.456" stroke="black" stroke-width="3" stroke-linecap="round"/>
<path d="M168.765 64.2928C168.872 65.3613 169.958 66.1835 170.528 67.0123C171.595 68.565 172.633 69.818 174.417 70.6434C178.338 72.4576 183.64 75.3809 188.182 74.6239C190.29 74.2725 191.934 72.4052 193.241 70.8561C195.115 68.6344 196.808 66.3806 197.753 63.5939C198.002 62.8592 199.247 59.0233 198.3 58.5499" stroke="black" stroke-width="3" stroke-linecap="round"/>
<path d="M146.429 26.3351C146.027 26.3854 145.481 28.5086 145.32 28.8717C144.821 29.9945 144.21 31.5904 144.21 32.8351C144.21 34.1184 143.734 35.4341 143.734 36.728C143.734 38.3116 143.812 39.7654 144.333 41.2727C144.801 42.6244 145.786 44.0413 146.623 45.2008C147.358 46.2182 147.819 47.2241 148.728 48.1337C150.319 49.7249 153.228 49.8781 155.149 48.9176C157.227 47.8786 158.773 45.4375 159.148 43.1927C159.312 42.2043 159.651 41.2066 159.738 40.207C159.83 39.1482 159.746 38.0449 159.746 36.9834C159.746 35.4602 159.042 33.9451 158.478 32.5532C157.98 31.3221 156.887 30.3356 156.223 29.1887C156.027 28.8487 155.389 28.3951 155.078 28.1671C154.592 27.81 153.996 27.1382 153.405 26.9693C152.365 26.672 151.554 25.4522 150.393 25.3839C149.246 25.3164 148.58 25.8912 147.927 26.7314C147.549 27.2173 147.194 27.7403 146.782 28.2023C146.529 28.4856 145.971 29.5017 145.971 29.8933C145.971 31.002 147.188 27.5153 148.297 27.5153C148.462 27.5153 148.016 28.2711 148.015 28.2728C147.578 29.0342 147.116 29.7867 146.658 30.5363C145.965 31.6742 145.093 32.6992 144.404 33.8391C143.835 34.7794 145.192 32.7776 145.32 32.5973C146.114 31.4774 146.912 30.3593 147.627 29.1887C147.943 28.6727 148.421 27.6034 149.045 27.6034C149.711 27.6034 150.073 28.1029 150.551 28.5546C151.214 29.1803 151.881 29.6236 152.463 30.3866C152.832 30.8709 153.15 31.6288 153.564 32.0424C154.2 32.6783 153.529 31.6641 153.405 31.4082C153.08 30.7393 152.679 30.0493 152.445 29.3473C152.379 29.1503 152.03 28.6285 152.146 28.8012C152.314 29.0533 152.814 29.2969 153.053 29.4706C154.2 30.307 155.945 31.9395 156.267 33.3899C156.513 34.4964 156.576 35.6387 156.576 36.7984C156.576 37.7843 156.893 38.6589 156.893 39.6521C156.893 40.9059 156.313 42.4698 155.942 43.6771C155.796 44.1502 155.762 44.5638 155.783 43.774C155.813 42.6771 156.869 41.2433 157.404 40.3214C157.842 39.5662 159.457 37.0026 158.549 36.0938C158.141 35.6863 158.258 36.6552 158.196 36.9922C157.883 38.6992 157.909 40.436 157.527 42.1358C157.297 43.1581 157.202 44.2247 156.822 45.2008C156.632 45.6913 156.582 46.5116 156.223 46.9095C155.489 47.7252 153.765 47.7374 152.789 47.7374C151.56 47.7374 150.98 47.7059 150.155 46.6981C149.087 45.3923 148.149 43.5711 147.733 41.9068C147.426 40.6797 146.875 40.3121 145.989 39.4583C145.234 38.7298 144.531 38.0288 145.082 37.0362C145.314 36.6184 145.539 36.2184 145.795 35.812C146.2 35.1692 146.021 34.4502 146.148 33.751C146.266 33.1026 146.321 32.4596 146.438 31.8134C146.609 30.8726 146.588 33.5093 146.588 33.7687C146.588 34.9254 146.588 36.0821 146.588 37.2388C146.588 37.9856 146.587 36.1696 146.597 35.997C146.692 34.3797 147.478 32.8203 148.209 31.4082C148.301 31.2292 149.125 29.5872 149.125 30.3337C149.125 31.3138 148.797 32.3036 148.482 33.2226C148.298 33.7574 147.856 35.3645 147.856 34.7991C147.856 33.8977 148.319 33.2821 148.649 32.4828C148.729 32.2896 149.547 30.4878 149.442 31.5668C149.355 32.4529 148.7 33.3482 148.332 34.1386C147.767 35.3512 147.23 36.5759 146.676 37.7937C146.335 38.5446 145.177 40.6757 145.76 40.0925C145.865 39.9874 145.903 39.6039 145.989 39.4583C146.397 38.7682 146.835 38.0833 147.301 37.4326C147.894 36.6068 148.397 35.6976 148.887 34.8168C149.161 34.3236 149.14 34.957 149.125 35.2131C149.107 35.5139 148.69 35.8187 148.649 36.1643C148.61 36.4924 148.266 36.3692 148.323 36.5694C148.457 37.0382 148.69 37.5689 148.887 38.0491C149.632 39.8696 150.551 41.8728 150.551 43.8621C150.551 44.2996 150.71 44.6425 150.71 45.0775C150.71 45.6694 150.804 45.5239 151.15 45.8702C151.658 46.3775 152.602 46.5775 153.317 46.2401C154.421 45.7186 154.628 44.788 155.396 44.0206C155.752 43.6641 155.319 43.774 154.955 43.774C154.32 43.774 153.754 43.6735 153.158 43.4569C152.789 43.3226 152.452 43.2262 152.172 42.9461C151.734 42.5085 152.282 42.5133 152.718 42.3472C153.208 42.1604 156.324 40.9027 155.536 39.8899C154.51 38.5698 153.341 36.9792 152.683 35.4069C152.315 34.5274 151.716 33.1265 151.661 32.2009C151.645 31.927 151.344 31.8509 151.344 31.5051C151.344 30.7124 151.344 33.0905 151.344 33.8832C151.344 35.8516 151.661 37.8205 151.661 39.7754C151.661 40.088 151.741 40.5277 151.828 40.8323C152.207 42.157 152.006 38.0788 151.969 36.7016C151.918 34.7735 151.554 32.8491 151.503 30.9326C151.468 29.6534 151.862 30.7032 152.427 31.3818C153.599 32.7878 154.673 33.9929 154.673 35.8472C154.673 37.2577 154.106 38.5853 153.731 39.8987C153.564 40.4823 153.538 41.4089 152.929 41.713" stroke="black" stroke-width="3" stroke-linecap="round"/>
<path d="M152.137 44.5667C152.137 45.8601 153.027 43.6702 153.097 43.2191C153.184 42.6528 153.514 41.3414 154.039 41.0789" stroke="black" stroke-width="3" stroke-linecap="round"/>
<path d="M200.331 18.4084C199.739 18.4741 199.451 19.9983 199.301 20.4781C199.156 20.9425 199.065 21.4566 198.869 21.8961C198.698 22.2814 198.839 22.6972 198.667 23.0763C198.312 23.8569 198.588 25.344 198.588 26.1766C198.588 27.2119 198.9 28.1051 199.054 29.1095C199.24 30.3191 200.098 31.3428 200.719 32.3595C201.343 33.3801 201.943 34.2881 202.789 35.1338C203.345 35.6904 203.755 36.163 204.462 36.5606C205.142 36.9433 206.262 37.9082 207.069 37.9082C207.886 37.9082 208.703 38.2253 209.527 38.2253C210.777 38.2253 211.238 37.9405 212.134 37.0451C214.605 34.5735 215.075 30.9625 215.075 27.6034C215.075 23.8643 214.008 18.3403 209.527 18.0913C208.763 18.0489 208 17.6157 207.228 17.6157C206.448 17.6157 205.673 17.4571 204.859 17.4571C202.604 17.4571 199.856 19.7973 199.856 22.1427C199.856 24.6113 199.642 26.696 200.331 29.1095C200.733 30.5135 201.441 31.4034 202.225 32.5796C202.598 33.1387 203.015 33.8058 203.432 34.3412C204.351 35.5228 206.276 36.6399 207.853 36.6399C208.604 36.6399 209.135 36.6876 209.773 36.3228C210.434 35.9453 210.654 34.8544 210.804 34.1826C211.732 30.0063 213.154 25.3655 211.825 21.1123C211.713 20.7529 211.621 20.4171 211.429 20.0818C211.063 19.4414 212.4 21.1933 212.856 21.7728C214.185 23.4609 214.873 25.9936 214.917 28.1142C214.953 29.8797 215.046 31.9113 214.247 33.5397C213.631 34.7966 212.364 36.3818 210.953 36.7632C208.732 37.3635 207.761 36.3 206.831 34.3323C205.761 32.0663 205.751 28.7569 206.162 26.3351C206.489 24.4081 208.384 23.3796 210.266 24.1509C212.916 25.2367 213.173 28.2323 213.173 30.7741C213.173 31.1821 212.705 33.4753 212.301 33.1521C211.977 32.8928 211.991 31.8629 211.94 31.4963C211.709 29.8539 211.905 28.0855 211.905 26.4232C211.905 26.0275 212.122 25.2254 211.587 25.2254C211.045 25.2254 210.365 25.0978 209.923 25.472C208.77 26.4474 208.855 27.9965 208.769 29.3649C208.689 30.6428 208.734 31.9333 208.734 33.2138C208.734 33.462 208.999 33.8047 209.174 33.98C209.473 34.2786 209.151 34.4939 208.972 34.8168C208.656 35.3843 208.721 34.822 208.734 34.4556C208.77 33.4409 209.391 32.3467 209.755 31.4082C210.034 30.6923 210.448 29.8343 210.478 29.0654C210.502 28.4334 210.833 28.7089 211.024 29.1183C211.423 29.9745 212.434 33.014 211.182 33.4692C210.459 33.7321 209.479 34.0731 208.901 34.579C208.44 34.9828 207.92 35.2131 207.307 35.2131C206.221 35.2131 205.241 34.3026 204.7 33.3635C203.701 31.6308 202.969 29.3688 202.586 27.4096C202.34 26.1527 201.985 23.7334 202.586 22.5303C202.743 22.2168 203.315 21.6707 203.256 21.3324C203.133 20.6361 202.737 19.9428 202.709 19.2363C202.667 18.1239 204.597 19.0043 205.246 19.0425C206.513 19.117 207.597 19.649 208.734 20.1875C209.615 20.605 210.379 20.803 211.112 21.5791C211.763 22.2684 210.125 21.7306 209.852 21.6583C208.875 21.3997 208.015 21.1035 206.99 21.1035C206.112 21.1035 205.428 23.7665 205.052 24.5032C204.76 25.0755 204.613 25.4983 204.445 26.0885C204.247 26.7788 204.149 24.6748 204.136 23.9571C204.118 22.96 203.593 20.7939 205.088 20.6278C205.424 20.5905 205.88 20.2584 205.88 20.8745C205.88 22.987 205.273 24.9091 204.647 26.9164C204.29 28.0625 203.93 29.1704 203.67 30.3425C203.495 31.1262 204.631 29.0565 205.088 28.3961C206.229 26.7439 210.208 20.0879 212.38 24.4327" stroke="black" stroke-width="3" stroke-linecap="round"/>
<path d="M139.471 51.4028C140.15 51.4878 138.794 56.3855 138.794 57.1525" stroke="black" stroke-width="3" stroke-linecap="round"/>
<path d="M148.603 54.1086V58.3363" stroke="black" stroke-width="3" stroke-linecap="round"/>
<path d="M161.962 51.0646C161.962 51.7947 162.328 52.9178 162.77 53.4697C162.929 53.6682 162.876 54.4153 162.977 54.691C163.116 55.0736 163.356 55.4156 163.484 55.7996" stroke="black" stroke-width="3" stroke-linecap="round"/>
<path d="M195.953 42.1019C195.953 43.7535 196.311 45.9326 195.784 47.5133" stroke="black" stroke-width="3" stroke-linecap="round"/>
<path d="M210.834 39.3961C210.834 40.0195 211.135 42.506 211.68 42.7783" stroke="black" stroke-width="3" stroke-linecap="round"/>
<path d="M220.304 34.1538C221.207 34.1538 222.192 34.0219 223.048 34.2853C223.727 34.4944 224.386 34.7816 225.039 34.9993" stroke="black" stroke-width="3" stroke-linecap="round"/>
<path d="M191.894 23.1617C190.677 22.6748 189.656 22.7521 188.606 21.8934C187.674 21.1308 186.698 20.3102 185.637 19.7796" stroke="black" stroke-width="3" stroke-linecap="round"/>
<path d="M203.055 9.29486V14.7063" stroke="black" stroke-width="3" stroke-linecap="round"/>
<path d="M222.503 15.0445C222.503 15.6331 221.665 17.3158 221.15 17.6187C220.355 18.0867 219.844 19.1643 218.952 19.6105" stroke="black" stroke-width="3" stroke-linecap="round"/>
<path d="M134.566 33.8156C132.278 33.8156 130.955 31.7661 128.986 31.1098" stroke="black" stroke-width="3" stroke-linecap="round"/>
<path d="M162.3 26.5439C162.3 25.148 162.491 23.9806 163.23 22.7484C163.63 22.0828 164.165 21.4614 164.499 20.7942" stroke="black" stroke-width="3" stroke-linecap="round"/>
<path d="M146.235 24.3455C146.235 23.1435 146.159 22.1864 145.906 21.0479C145.742 20.31 145.099 17.8586 144.544 17.5812" stroke="black" stroke-width="3" stroke-linecap="round"/>
<path d="M126.449 20.7942C126.528 19.3685 128.38 17.9997 129.324 17.0738C130.647 15.7754 132.386 14.8319 134.153 14.2835C135.676 13.8109 137.113 13.0647 138.587 12.4703C139.967 11.9139 141.335 11.3435 142.693 10.7323C145.142 9.63004 148.341 9.92435 150.97 9.97129C153.827 10.0223 157.708 11.1287 159.764 13.1843" stroke="black" stroke-width="3" stroke-linecap="round"/>
<path d="M185.468 10.9859C186.308 9.47417 188.492 8.30752 189.949 7.44406C191.279 6.65591 192.645 6.19707 193.923 5.27384C195.692 3.99625 198.233 2.92695 200.35 2.44597C202.089 2.05065 203.908 2.0232 205.686 2.0232C206.538 2.0232 207.45 1.93319 208.288 2.10776C209.332 2.32523 210.402 2.71423 211.445 2.86874C214.5 3.32128 217.84 5.22892 219.121 8.1111" stroke="black" stroke-width="3" stroke-linecap="round"/>
</svg>
