<svg width="70" height="76" viewBox="0 0 70 76" fill="none" xmlns="http://www.w3.org/2000/svg">
<path d="M10.4224 9.00183C10.4224 11.812 10.4224 14.6221 10.4224 17.4322C10.4224 20.9178 10.8981 24.2626 11.2799 27.6984C11.3853 28.6468 11.6239 29.5984 11.7268 30.5247C11.7533 30.7634 11.9442 32.1823 11.9442 31.3943C11.9442 28.5354 12.1136 25.5238 13.4177 22.9156C14.8102 20.1305 15.8445 25.9065 15.9661 26.5148C16.1499 27.4337 16.2565 28.4935 16.727 29.3169C17.0117 29.815 18.0457 27.2439 18.1401 27.0341C18.6531 25.8942 18.4345 24.2771 19.0098 23.2417C19.4424 22.4628 20.0308 24.3542 20.3142 24.7635C20.7325 25.3678 20.7824 25.9592 21.6186 25.9592C22.517 25.9592 22.9388 25.5176 23.3578 24.7635C24.5407 22.6344 22.8636 20.3067 20.592 20.3067C19.5007 20.3067 18.5144 20.7464 18.4662 21.9977C18.4285 22.9788 18.2735 23.6017 19.2875 24.0026C20.6708 24.5495 22.2686 24.836 23.0075 23.2658C23.5869 22.0347 23.4665 20.3356 23.4665 19.0023C23.4665 17.9687 23.1884 17.2559 24.2395 18.1569C25.2603 19.0318 26.1718 20.2672 27.4764 20.7416C29.4789 21.4697 29.119 18.1005 29.119 16.8283C29.119 16.1674 29.1607 15.1371 28.2493 15.0891C27.201 15.0339 26.8048 15.3871 27.4281 16.4418C28.201 17.7499 29.4603 19.5227 30.8582 20.2584C32.0389 20.8799 32.929 19.9245 33.6844 19.0506C35.6382 16.7904 36.2932 14.12 36.2932 11.1759" stroke="white" stroke-width="0.912417" stroke-linecap="round"/>
<path d="M3.86872 22.8307C3.86872 25.9259 3.86872 29.0211 3.86872 32.1163C3.86872 34.1909 3.86872 36.2656 3.86872 38.3402C3.86872 38.719 3.64064 40.1001 3.9526 40.4121C4.3262 40.7857 6.05107 40.4799 6.46901 40.3114C8.17005 39.6255 9.06045 38.3798 9.69003 36.671C9.92358 36.037 10.3236 34.0839 10.3611 34.7585C10.4373 36.1311 10.6898 37.5299 10.8476 38.9022C10.9759 40.0188 11.0612 40.775 12.1813 41.167C12.9792 41.4463 14.4379 41.6485 14.9577 40.7979C15.6674 39.6367 15.5966 38.0204 15.4778 36.7129C15.4351 36.2438 15.0706 34.7585 14.3622 34.7585C12.0638 34.7585 9.79983 34.0839 7.49236 33.8861C5.22935 33.6922 2.94301 33.6381 1 32.3427" stroke="white" stroke-width="0.912417" stroke-linecap="round"/>
<path d="M22.2888 34.4564C21.695 34.4564 21.9868 36.7793 21.9868 37.3167C21.9868 37.7214 21.8389 38.2572 22.3559 38.3485C23.1866 38.4951 24.1293 38.382 24.973 38.382C25.3871 38.382 25.9933 38.238 26.2815 38.6085C26.6904 39.1343 26.8063 39.9249 26.7344 40.5713C26.5055 42.6316 23.7614 43.6425 22.0371 44.0859C21.2158 44.2971 20.4108 44.2704 19.571 44.2704" stroke="white" stroke-width="0.912417" stroke-linecap="round"/>
<path d="M25.7615 25.5483C25.7615 27.3126 25.7615 29.0769 25.7615 30.8412C25.7615 33.632 26.5099 36.0816 27.2042 38.7595C27.6119 40.3322 29.0469 41.3303 30.4756 40.1939C31.307 39.5325 32.8578 37.8866 32.8578 36.7212" stroke="white" stroke-width="0.912417" stroke-linecap="round"/>
<path d="M24.5537 35.8154C26.6817 35.8154 27.8246 34.9102 28.9323 33.2487" stroke="white" stroke-width="0.912417" stroke-linecap="round"/>
<path d="M37.0855 31.5878C35.7369 31.5878 35.1003 32.9421 34.4516 34.0035C33.6927 35.2455 33.9148 36.8393 33.9148 38.2311C33.9148 39.4505 33.9827 40.4124 35.1227 40.9824C36.4485 41.6453 37.3481 38.221 37.6559 37.3923C38.2689 35.742 38.7463 34.1865 38.7463 32.4182C38.7463 31.5152 38.7365 32.4222 38.7463 32.7956C38.775 33.8859 39.3623 35.0185 39.7277 36.0334C40.1188 37.1196 40.9795 37.5755 42.0344 36.8722C43.1356 36.1381 43.4269 34.333 43.4269 33.0976" stroke="white" stroke-width="0.912417" stroke-linecap="round"/>
<path d="M41.615 29.7759C41.615 31.0665 43.026 31.9003 44.0308 32.3762C44.5567 32.6253 45.5363 32.9155 45.6832 32.1078C45.9658 30.5534 46.305 28.8601 45.6916 27.3266C45.5648 27.0097 45.3952 26.2271 45.0876 26.0348C44.6634 25.7697 45.308 26.6967 45.398 26.8485C47.1533 29.8105 48.0616 33.4798 48.3758 36.8722C48.6336 39.6572 48.7072 42.5769 45.9265 44.1111C45.0099 44.6168 43.8748 45.0254 42.8229 45.0254" stroke="white" stroke-width="0.912417" stroke-linecap="round"/>
<path d="M55.8075 31.7388C55.8075 30.8172 55.1736 30.048 54.5242 29.3985C54.1307 29.005 53.0203 28.1175 52.4523 28.6855C52.1744 28.9634 52.0968 29.8294 51.9658 30.2038C51.7294 30.8792 51.5799 31.6356 51.5799 32.3511C51.5799 33.5733 51.5529 34.7791 51.7225 35.9664C51.82 36.6487 52.6681 37.3252 53.3918 37.3252C54.411 37.3252 55.0516 34.8967 55.2371 34.1545C55.4006 33.5008 55.5541 32.85 55.6482 32.1917C55.7802 31.2677 55.6583 32.0875 55.883 32.7118C56.2068 33.6111 56.4318 34.5225 56.7134 35.4379C56.8546 35.8966 56.8993 36.4374 57.2503 36.7884C58.5173 38.0554 59.7963 32.649 59.9596 32.1917C60.412 30.9252 60.5931 29.4642 61.1256 28.2661C61.4881 27.4505 61.078 26.2943 60.0351 26.8737C59.206 27.3344 58.7918 29.4277 58.9866 30.3044C59.0955 30.7947 59.9134 31.226 60.2616 31.5207C60.8423 32.012 61.2935 32.4474 61.7798 33.0222C63.0666 34.5429 63.3466 36.3456 61.8805 37.8117C60.5131 39.1792 58.5708 39.439 56.7134 39.439" stroke="white" stroke-width="0.912417" stroke-linecap="round"/>
<path d="M26.229 57.7976C25.2394 57.7976 24.2578 57.6466 23.2932 57.6466C22.8933 57.6466 22.2996 57.2889 21.9259 57.5795C21.549 57.8727 21.3739 58.2357 21.1626 58.628C20.3499 60.1374 20.3406 61.4656 20.3406 63.1576C20.3406 64.5032 20.5084 64.8986 21.7078 65.5733C23.1066 66.3602 23.743 65.1056 24.3836 64.0215C25.057 62.8819 25.776 61.0942 25.776 59.7604C25.776 59.1372 25.946 59.602 26.078 60.0121C26.4252 61.0903 26.8565 62.1498 27.2859 63.1995C27.5501 63.8453 28.0686 64.3857 28.3092 65.0113C28.4404 65.3523 28.7957 65.4103 28.7957 65.7998" stroke="white" stroke-width="0.912417" stroke-linecap="round"/>
<path d="M30.3672 42.5884C30.3672 44.901 30.9103 47.2211 30.9711 49.5337C31.0259 51.6136 31.8121 53.8641 32.5565 55.7996C33.1123 57.2447 33.3637 58.9791 33.6972 60.4801C33.8471 61.1545 34.088 61.7588 34.4102 62.3674C34.646 62.8128 35.2214 63.0054 35.5007 63.4243" stroke="white" stroke-width="0.912417" stroke-linecap="round"/>
<path d="M31.7262 53.9122C31.7262 52.4367 32.6512 51.6107 33.5045 50.4731C34.2768 49.4434 35.4556 48.1162 36.6248 47.5037C37.4571 47.0678 38.2508 46.6768 39.1161 46.2875C39.5221 46.1047 40.8672 45.6426 39.7284 46.212C37.2424 47.4549 34.4212 48.3485 32.4056 50.3641C31.7756 50.994 30.5183 52.1105 30.5183 53.0818C30.5183 53.7712 31.5286 53.3653 32.0365 53.5431C33.3332 53.9969 34.445 54.5695 35.5344 55.4221C37.7558 57.1606 39.8971 59.3091 42.9326 59.1967C44.2414 59.1482 44.2579 57.1546 44.2579 56.3028C44.2579 55.6569 44.2579 55.011 44.2579 54.3652C44.2579 53.8053 44.2525 54.1664 44.4089 54.5161C44.8398 55.4792 45.0305 56.5408 45.5413 57.4603C45.8794 58.069 46.5569 58.1398 47.2105 58.1398C48.5106 58.1398 49.1348 56.083 49.5424 55.0865C49.8454 54.3459 50.3266 53.0137 51.0523 52.5869C51.4311 52.3641 51.5881 51.9149 52.0253 51.79C52.5113 51.6512 52.8219 51.4964 53.3925 51.4964C54.1274 51.4964 52.9677 51.1394 52.6796 51.228C51.2343 51.6727 50.7276 54.925 51.3207 56.177C51.4836 56.5208 52.456 57.1144 52.8641 56.8983C53.1965 56.7224 53.2814 55.8676 53.317 55.5646C53.4593 54.3557 53.6726 53.1674 53.77 51.9494C53.9451 49.7613 54.1159 47.3878 53.8874 45.1886C53.8456 44.7857 53.8409 44.3513 53.6274 44.0311C53.2867 43.52 53.8457 45.2413 54.0049 45.8345C54.6759 48.3358 55.3114 50.9397 56.1858 53.3754C56.6328 54.6206 57.057 56.3184 58.5512 56.5964C60.3866 56.9378 61.6583 55.0954 62.9801 54.2142" stroke="white" stroke-width="0.912417" stroke-linecap="round"/>
<path d="M44.2578 51.1945C44.2578 50.9697 44.3397 50.7979 44.4088 50.5906" stroke="white" stroke-width="0.912417" stroke-linecap="round"/>
<path d="M43.4233 66.4821C42.7958 66.4821 41.953 66.3217 41.391 66.6565C40.8612 66.9721 40.6552 67.5044 40.5353 68.0772C40.3649 68.8915 40.3261 69.6977 40.3261 70.528C40.3261 71.4775 40.3303 72.3951 40.4679 73.3369C40.5298 73.7604 40.6497 74.173 40.7028 74.5972C40.7113 74.6655 40.7948 74.8798 40.7237 74.9367C40.5843 75.0481 40.251 74.9785 40.0866 74.9785C39.3223 74.9785 38.5682 74.8818 37.8404 74.6437C37.5891 74.5614 37.2931 74.4584 37.0847 74.2879C36.6635 73.9433 37.9415 73.0768 38.1055 72.9509C38.9568 72.2972 39.8556 71.7187 40.7632 71.1489C41.0163 70.9899 41.2635 70.823 41.5189 70.6675C41.5709 70.6359 41.7479 70.4848 41.8096 70.5024C41.8511 70.5143 41.8672 70.7863 41.8747 70.8163C41.9344 71.0554 42.0289 71.2817 42.1677 71.486C42.3358 71.7335 42.5943 71.9972 42.8885 72.0813C43.4256 72.2347 44.1332 71.9805 44.6184 71.7976C45.3644 71.5165 45.9628 70.9506 46.0926 70.1327C46.191 69.5133 46.092 68.8977 45.7159 68.3795C45.3935 67.9353 44.9049 67.8678 44.4045 68.1005C43.8752 68.3467 43.1273 68.7369 42.8373 69.2864C42.7043 69.5383 42.7118 69.8438 42.7118 70.1234" stroke="white" stroke-width="0.912417" stroke-linecap="round"/>
<path d="M46.4365 67.1099C46.4365 68.1461 46.4488 69.1984 46.8155 70.1839C46.9163 70.4547 47.1176 70.797 47.148 71.0861C47.1739 71.3319 47.2318 71.0925 47.2318 70.9768C47.2318 70.4203 47.2318 69.8638 47.2318 69.3073C47.2318 68.7114 47.4201 68.2021 47.6596 67.6633C47.8865 67.1528 48.4354 66.6077 49.0315 66.6077" stroke="white" stroke-width="0.912417" stroke-linecap="round"/>
<path d="M49.9941 68.6586C50.5146 68.6586 51.1361 68.5588 51.4916 68.1145C51.8173 67.7074 51.9402 67.1881 52.0124 66.6821C52.0564 66.3743 52.2722 65.5168 51.8776 65.3195C51.6304 65.196 51.3534 65.3003 51.1242 65.4149C50.7479 65.603 50.5143 65.9406 50.3941 66.3357C50.2792 66.713 50.3403 67.1342 50.308 67.5215C50.2617 68.0782 50.2871 68.642 50.2871 69.2003C50.2871 69.8471 50.2505 70.7509 50.9382 71.1024C51.755 71.5199 52.35 70.8648 52.8821 70.3327" stroke="white" stroke-width="0.912417" stroke-linecap="round"/>
<path d="M52.7148 64.3476C53.0119 64.3773 53.3852 64.8305 53.6031 65.0173C53.942 65.3078 54.271 65.5926 54.589 65.9055C54.9673 66.2778 55.358 66.6529 55.7004 67.0588C55.9685 67.3766 56.1697 67.7978 56.4631 68.0912C56.6243 68.2524 56.569 67.9195 56.5631 67.8192C56.522 67.1214 56.4296 66.4236 56.3352 65.7311C56.2503 65.1082 56.1061 64.4957 56.0655 63.8663C56.0583 63.7548 56.1311 63.3143 56.0213 63.2594" stroke="white" stroke-width="0.912417" stroke-linecap="round"/>
<path d="M57.7791 64.9336C58.3001 64.4125 58.8367 63.8892 59.2858 63.3013C59.6236 62.859 59.9305 62.4465 60.0299 61.8875C60.0482 61.7844 60.0856 61.4911 60.0159 61.4016C59.9556 61.324 59.6587 61.2729 59.5695 61.2597C59.2693 61.2154 58.7362 61.1631 58.4929 61.376C58.1647 61.6632 58.0302 62.1081 58.0302 62.527C58.0302 63.3925 58.076 64.2038 58.2185 65.0591C58.3067 65.5884 58.4328 66.5951 58.9928 66.8751C59.2702 67.0138 59.6166 66.788 59.8113 66.617C60.3459 66.1478 60.7633 65.5823 61.1274 64.9754" stroke="white" stroke-width="0.912417" stroke-linecap="round"/>
<path d="M61.1694 60.1202C61.1823 60.5705 61.3523 61.0253 61.4624 61.4596C61.5852 61.9441 61.7557 62.4184 61.9135 62.8919C62.0405 63.2729 62.2609 63.6327 62.3739 64.0127C62.4008 64.1032 62.4273 64.1823 62.4762 64.2638C62.5094 64.3191 62.4696 63.9918 62.4646 63.9615C62.3353 63.1857 62.2158 62.4273 62.2158 61.6363C62.2158 60.9973 62.2208 60.5181 62.6134 59.9947C62.9824 59.5026 63.4775 59.0072 63.9504 58.6158C64.1076 58.4857 64.3812 58.2368 64.6015 58.2368" stroke="white" stroke-width="0.912417" stroke-linecap="round"/>
<path d="M40.9905 14.0403C40.9905 12.5737 41.0819 11.1241 41.9008 9.84467C42.7548 8.51024 44.0984 7.83444 45.6482 7.57126C46.2458 7.46978 46.8546 7.4696 47.4595 7.4696C48.3139 7.4696 48.8298 7.82443 49.488 8.36141C50.519 9.20246 51.0627 10.3879 51.6413 11.5451C51.8733 12.009 52.24 12.5144 52.3021 13.0422C52.3292 13.2728 52.2815 13.1621 52.0526 13.3102C51.9041 13.4063 51.7818 13.6412 51.6552 13.7723C51.3408 14.0979 51.0555 14.4058 50.7172 14.7103C49.4231 15.875 48.008 16.0547 46.3321 16.2675C44.9029 16.449 42.8729 16.006 41.8222 14.9552C41.4393 14.5723 41.4063 13.9833 41.4063 13.4581" stroke="white" stroke-width="0.912417" stroke-linecap="round"/>
<path d="M58.041 11.961C58.041 10.1409 58.4895 8.0961 59.6675 6.65635C60.7761 5.30146 62.0829 5.14075 63.7153 5.14075C64.6185 5.14075 65.6925 5.68652 66.4231 6.20352C67.0139 6.62168 67.9514 7.3148 68.3361 7.96865C68.5894 8.39932 68.2193 9.11703 68.0034 9.54894C67.2479 11.0599 65.5135 11.8856 63.9279 12.3953C62.8656 12.7368 61.421 13.253 60.3052 12.8944C59.5944 12.6659 59.0345 12.162 58.6232 11.5451" stroke="white" stroke-width="0.912417" stroke-linecap="round"/>
<path d="M53.7158 10.9629C53.7158 13.0932 53.799 15.2514 53.799 17.3673C53.799 18.1489 55.7653 17.8663 56.3774 17.8663" stroke="white" stroke-width="0.912417" stroke-linecap="round"/>
<path d="M51.7197 19.9457C51.7522 20.2707 52.0824 20.5207 52.2557 20.7728C52.5804 21.245 52.8961 21.6261 53.4386 21.8772C54.6312 22.4289 56.2438 23.318 57.625 23.0878C58.2663 22.9809 58.7662 22.413 59.1638 21.9418C59.7339 21.2661 60.2486 20.5807 60.5361 19.7331C60.6119 19.5097 60.9905 18.343 60.7025 18.199" stroke="white" stroke-width="0.912417" stroke-linecap="round"/>
<path d="M44.9266 8.40123C44.8044 8.41651 44.6382 9.06226 44.5891 9.17269C44.4373 9.5142 44.2516 9.99957 44.2516 10.3781C44.2516 10.7684 44.1069 11.1686 44.1069 11.5621C44.1069 12.0437 44.1304 12.4859 44.2891 12.9443C44.4314 13.3554 44.7309 13.7864 44.9856 14.139C45.209 14.4484 45.3491 14.7544 45.6258 15.031C46.1097 15.515 46.9943 15.5616 47.5785 15.2694C48.2105 14.9534 48.6809 14.211 48.7947 13.5283C48.8448 13.2277 48.9477 12.9242 48.9741 12.6202C49.0021 12.2982 48.9768 11.9626 48.9768 11.6398C48.9768 11.1765 48.7624 10.7157 48.5911 10.2924C48.4395 9.91797 48.1073 9.61792 47.9053 9.26913C47.8455 9.16569 47.6517 9.02775 47.5571 8.9584C47.409 8.8498 47.228 8.64549 47.0482 8.59409C46.7318 8.5037 46.4853 8.1327 46.132 8.11192C45.7831 8.0914 45.5808 8.26622 45.382 8.52177C45.2671 8.66953 45.1592 8.82859 45.0338 8.96911C44.9568 9.05527 44.7873 9.36432 44.7873 9.48342C44.7873 9.8206 45.1573 8.76017 45.4945 8.76017C45.5449 8.76017 45.4091 8.99004 45.4088 8.99054C45.2759 9.22214 45.1353 9.45099 44.9963 9.67897C44.7852 10.0251 44.5201 10.3368 44.3105 10.6835C44.1376 10.9695 44.5502 10.3606 44.5891 10.3058C44.8308 9.96521 45.0734 9.62513 45.2909 9.26913C45.3868 9.11217 45.5323 8.78696 45.7222 8.78696C45.9248 8.78696 46.0348 8.93889 46.1803 9.07626C46.3818 9.26657 46.5847 9.40137 46.7615 9.63343C46.8738 9.78075 46.9706 10.0112 47.0964 10.137C47.2898 10.3304 47.086 10.022 47.0482 9.94416C46.9492 9.74072 46.8273 9.53085 46.7562 9.31734C46.7362 9.25745 46.6301 9.09873 46.6651 9.15126C46.7162 9.22793 46.8685 9.30201 46.941 9.35485C47.29 9.60923 47.8207 10.1057 47.9187 10.5469C47.9935 10.8834 48.0125 11.2308 48.0125 11.5835C48.0125 11.8834 48.1089 12.1494 48.1089 12.4514C48.1089 12.8328 47.9326 13.3084 47.8196 13.6756C47.7754 13.8195 47.7649 13.9453 47.7714 13.7051C47.7804 13.3715 48.1017 12.9354 48.2643 12.655C48.3975 12.4253 48.8889 11.6456 48.6125 11.3692C48.4886 11.2453 48.5242 11.54 48.5054 11.6425C48.41 12.1616 48.4181 12.6899 48.3018 13.2068C48.2318 13.5177 48.2029 13.8421 48.0875 14.139C48.0295 14.2882 48.0142 14.5377 47.9053 14.6587C47.6821 14.9068 47.1577 14.9105 46.8606 14.9105C46.4869 14.9105 46.3105 14.9009 46.0597 14.5944C45.7348 14.1973 45.4496 13.6433 45.3231 13.1372C45.2298 12.764 45.062 12.6522 44.7927 12.3925C44.5629 12.1709 44.3491 11.9577 44.5168 11.6559C44.5874 11.5288 44.6559 11.4071 44.7338 11.2835C44.8568 11.088 44.8022 10.8693 44.8409 10.6567C44.8768 10.4595 44.8936 10.2639 44.9293 10.0674C44.9813 9.78125 44.9748 10.5832 44.9748 10.6621C44.9748 11.0139 44.9748 11.3657 44.9748 11.7175C44.9748 11.9446 44.9744 11.3923 44.9775 11.3398C45.0064 10.8479 45.2456 10.3736 45.4677 9.94416C45.4959 9.8897 45.7463 9.3903 45.7463 9.61736C45.7463 9.91544 45.6466 10.2165 45.5508 10.496C45.495 10.6586 45.3606 11.1474 45.3606 10.9755C45.3606 10.7013 45.5012 10.5141 45.6017 10.271C45.6259 10.2122 45.8748 9.66421 45.8427 9.99238C45.8164 10.2619 45.6173 10.5342 45.5052 10.7746C45.3333 11.1434 45.17 11.5159 45.0016 11.8862C44.8978 12.1146 44.5456 12.7628 44.723 12.5854C44.755 12.5534 44.7665 12.4368 44.7927 12.3925C44.9167 12.1826 45.0498 11.9743 45.1918 11.7764C45.372 11.5252 45.5252 11.2487 45.674 10.9808C45.7573 10.8308 45.7509 11.0235 45.7463 11.1014C45.7409 11.1928 45.614 11.2855 45.6017 11.3907C45.5899 11.4905 45.4851 11.453 45.5025 11.5139C45.5433 11.6564 45.6142 11.8179 45.674 11.9639C45.9005 12.5176 46.1803 13.1269 46.1803 13.7319C46.1803 13.8649 46.2285 13.9692 46.2285 14.1015C46.2285 14.2815 46.2571 14.2373 46.3624 14.3426C46.5167 14.4969 46.804 14.5577 47.0214 14.4551C47.3572 14.2965 47.4202 14.0135 47.6535 13.7801C47.762 13.6717 47.6301 13.7051 47.5196 13.7051C47.3263 13.7051 47.1543 13.6745 46.9732 13.6086C46.8608 13.5678 46.7583 13.5385 46.6731 13.4533C46.54 13.3202 46.7066 13.3216 46.8392 13.2711C46.9884 13.2143 47.936 12.8318 47.6964 12.5238C47.3841 12.1223 47.0287 11.6385 46.8285 11.1603C46.7165 10.8928 46.5343 10.4667 46.5178 10.1852C46.5129 10.1019 46.4213 10.0788 46.4213 9.97363C46.4213 9.73254 46.4213 10.4558 46.4213 10.6969C46.4213 11.2956 46.5178 11.8944 46.5178 12.4889C46.5178 12.584 46.5422 12.7178 46.5687 12.8104C46.6838 13.2133 46.6227 11.9729 46.6115 11.5541C46.5959 10.9677 46.4853 10.3824 46.4696 9.79951C46.459 9.41044 46.5788 9.72972 46.7508 9.93613C47.1072 10.3637 47.4339 10.7303 47.4339 11.2942C47.4339 11.7232 47.2614 12.127 47.1473 12.5264C47.0966 12.7039 47.0885 12.9857 46.9035 13.0783" stroke="white" stroke-width="0.912417" stroke-linecap="round"/>
<path d="M46.6624 13.9462C46.6624 14.3396 46.9332 13.6735 46.9543 13.5364C46.9808 13.3641 47.0813 12.9653 47.241 12.8854" stroke="white" stroke-width="0.912417" stroke-linecap="round"/>
<path d="M61.3202 5.99041C61.1401 6.01042 61.0524 6.47399 61.0068 6.61991C60.9626 6.76114 60.9349 6.91751 60.8755 7.05118C60.8234 7.16836 60.8663 7.29483 60.8139 7.41013C60.706 7.64753 60.7898 8.09981 60.7898 8.35303C60.7898 8.6679 60.8848 8.93957 60.9318 9.24504C60.9884 9.61293 61.2491 9.92429 61.438 10.2335C61.6278 10.5439 61.8103 10.82 62.0675 11.0773C62.2368 11.2466 62.3615 11.3903 62.5765 11.5112C62.7834 11.6276 63.1239 11.9211 63.3694 11.9211C63.6179 11.9211 63.8663 12.0175 64.1168 12.0175C64.4971 12.0175 64.6373 11.9309 64.9097 11.6586C65.6614 10.9069 65.8043 9.80862 65.8043 8.78698C65.8043 7.64977 65.4799 5.96971 64.1168 5.89398C63.8847 5.88108 63.6525 5.74933 63.4176 5.74933C63.1805 5.74933 62.9446 5.70111 62.697 5.70111C62.0115 5.70111 61.1755 6.41284 61.1755 7.12618C61.1755 7.87698 61.1105 8.51101 61.3202 9.24504C61.4422 9.67206 61.6576 9.94272 61.8961 10.3005C62.0095 10.4705 62.1364 10.6734 62.2631 10.8362C62.5426 11.1956 63.1281 11.5353 63.6078 11.5353C63.8362 11.5353 63.9976 11.5498 64.1918 11.4389C64.3927 11.3241 64.4598 10.9923 64.5052 10.788C64.7874 9.51781 65.2201 8.10636 64.8159 6.81278C64.7817 6.70347 64.7536 6.60135 64.6954 6.49937C64.5841 6.30461 64.9906 6.83743 65.1293 7.01368C65.5335 7.5271 65.7427 8.29737 65.7561 8.94235C65.7673 9.47931 65.7953 10.0972 65.5525 10.5924C65.3651 10.9747 64.9799 11.4568 64.5507 11.5728C63.8752 11.7554 63.5797 11.432 63.2971 10.8335C62.9716 10.1443 62.9684 9.13781 63.0935 8.40125C63.193 7.81516 63.7694 7.50236 64.3418 7.73693C65.1476 8.06717 65.2257 8.97827 65.2257 9.75132C65.2257 9.8754 65.0834 10.5729 64.9606 10.4746C64.862 10.3957 64.8664 10.0825 64.8507 9.97097C64.7806 9.47146 64.84 8.93362 64.84 8.42804C64.84 8.30768 64.906 8.06373 64.7436 8.06373C64.5786 8.06373 64.3718 8.02493 64.2373 8.13874C63.8867 8.43541 63.9124 8.90655 63.8864 9.32273C63.8621 9.7114 63.8757 10.1039 63.8757 10.4933C63.8757 10.5688 63.9563 10.673 64.0096 10.7264C64.1004 10.8172 64.0026 10.8826 63.948 10.9808C63.8521 11.1535 63.8717 10.9825 63.8757 10.871C63.8867 10.5624 64.0754 10.2296 64.1864 9.94419C64.2711 9.72645 64.3971 9.46549 64.4061 9.23165C64.4135 9.03941 64.514 9.12321 64.5721 9.24772C64.6937 9.50814 65.0011 10.4326 64.6204 10.571C64.4004 10.651 64.1024 10.7547 63.9266 10.9085C63.7862 11.0313 63.6282 11.1014 63.4417 11.1014C63.1114 11.1014 62.8134 10.8245 62.6488 10.5389C62.3451 10.0119 62.1225 9.3239 62.0059 8.72805C61.9311 8.34576 61.823 7.60998 62.0059 7.24405C62.0536 7.1487 62.2277 6.98261 62.2095 6.87974C62.1721 6.66795 62.0517 6.45709 62.0434 6.24221C62.0304 5.90391 62.6175 6.17167 62.8149 6.18328C63.2003 6.20595 63.5299 6.36773 63.8757 6.53151C64.1438 6.6585 64.376 6.71873 64.5989 6.95475C64.7969 7.1644 64.2989 7.00084 64.2159 6.97886C63.9188 6.90021 63.6572 6.8101 63.3453 6.8101C63.0784 6.8101 62.8702 7.62004 62.756 7.84408C62.6672 8.01815 62.6224 8.14673 62.5711 8.32625C62.5112 8.53618 62.4814 7.89629 62.4774 7.678C62.4719 7.37473 62.3121 6.71595 62.7667 6.66545C62.869 6.65408 63.0078 6.55309 63.0078 6.74045C63.0078 7.38296 62.823 7.96754 62.6328 8.57804C62.5241 8.92663 62.4146 9.26358 62.3354 9.62006C62.2825 9.85839 62.6279 9.22893 62.7667 9.02807C63.1139 8.52558 64.3239 6.50123 64.9847 7.82265" stroke="white" stroke-width="0.912417" stroke-linecap="round"/>
<path d="M42.8102 16.0253C43.017 16.0512 42.6045 17.5407 42.6045 17.774" stroke="white" stroke-width="0.912417" stroke-linecap="round"/>
<path d="M45.5874 16.8483V18.1341" stroke="white" stroke-width="0.912417" stroke-linecap="round"/>
<path d="M49.6506 15.9225C49.6506 16.1445 49.7621 16.4861 49.8964 16.654C49.9447 16.7143 49.9287 16.9416 49.9592 17.0254C50.0015 17.1418 50.0746 17.2458 50.1135 17.3626" stroke="white" stroke-width="0.912417" stroke-linecap="round"/>
<path d="M59.9884 13.1965C59.9884 13.6989 60.0973 14.3616 59.937 14.8424" stroke="white" stroke-width="0.912417" stroke-linecap="round"/>
<path d="M64.5146 12.3736C64.5146 12.5632 64.6062 13.3194 64.7718 13.4022" stroke="white" stroke-width="0.912417" stroke-linecap="round"/>
<path d="M67.3948 10.7792C67.6692 10.7792 67.9688 10.7391 68.2291 10.8192C68.4358 10.8828 68.6362 10.9701 68.8349 11.0364" stroke="white" stroke-width="0.912417" stroke-linecap="round"/>
<path d="M58.7541 7.43612C58.3838 7.28803 58.0732 7.31154 57.754 7.05038C57.4705 6.81843 57.1738 6.56885 56.8511 6.40747" stroke="white" stroke-width="0.912417" stroke-linecap="round"/>
<path d="M62.1487 3.21863V4.86447" stroke="white" stroke-width="0.912417" stroke-linecap="round"/>
<path d="M68.0635 4.96735C68.0635 5.14635 67.8086 5.65814 67.652 5.75026C67.4101 5.89259 67.2548 6.22032 66.9834 6.35602" stroke="white" stroke-width="0.912417" stroke-linecap="round"/>
<path d="M41.3186 10.6764C40.6226 10.6764 40.2202 10.0531 39.6213 9.85345" stroke="white" stroke-width="0.912417" stroke-linecap="round"/>
<path d="M49.7534 8.46477C49.7534 8.0402 49.8114 7.68517 50.0363 7.31039C50.1578 7.10797 50.3206 6.91898 50.422 6.71606" stroke="white" stroke-width="0.912417" stroke-linecap="round"/>
<path d="M44.8674 7.79613C44.8674 7.43054 44.8443 7.13947 44.7673 6.7932C44.7175 6.56878 44.5218 5.8232 44.353 5.73883" stroke="white" stroke-width="0.912417" stroke-linecap="round"/>
<path d="M38.8499 6.71606C38.8739 6.28246 39.4372 5.86614 39.7242 5.58455C40.1267 5.18964 40.6555 4.9027 41.1929 4.73592C41.6561 4.59216 42.0932 4.36523 42.5416 4.18445C42.9612 4.01522 43.3772 3.84172 43.7902 3.65583C44.5352 3.3206 45.5081 3.41011 46.3076 3.42439C47.1766 3.43991 48.3568 3.7764 48.982 4.40161" stroke="white" stroke-width="0.912417" stroke-linecap="round"/>
<path d="M56.7998 3.73298C57.0552 3.27319 57.7196 2.91836 58.1628 2.65575C58.5673 2.41604 58.9826 2.27649 59.3714 1.9957C59.9094 1.60714 60.6822 1.28192 61.3259 1.13564C61.8549 1.01541 62.4082 1.00706 62.9488 1.00706C63.2079 1.00706 63.4855 0.97968 63.7403 1.03277C64.0578 1.09892 64.3832 1.21723 64.7004 1.26422C65.6294 1.40185 66.6453 1.98204 67.0349 2.85862" stroke="white" stroke-width="0.912417" stroke-linecap="round"/>
</svg>
